0.11m3min_grf.mot
version=1
nRows=15
nColumns 19
inDegrees=yes
endheader
time	1_ground_force_vx	1_ground_force_vy	1_ground_force_vz	1_ground_force_px	1_ground_force_py	1_ground_force_pz	1_ground_torque_x	1_ground_torque_y	1_ground_torque_z	2_ground_force_vx	2_ground_force_vy	2_ground_force_vz	2_ground_force_px	2_ground_force_py	2_ground_force_pz	2_ground_torque_x	2_ground_torque_y	2_ground_torque_z
            1.253500	          -28.569112	         1066.038016	          -68.317034	           -0.149200	            0.006195	           -0.395290	           -0.002566	            0.095763	           -0.006137	           -5.468576	         1040.626766	           52.331951	           -0.184281	            0.005675	           -0.657495	            0.003629	           -0.690481	           -0.034723
            1.254000	          -28.252420	         1072.893224	          -69.480704	           -0.149198	            0.006194	           -0.395086	           -0.017034	            0.646874	           -0.041892	           -6.000232	         1045.226095	           53.052518	           -0.184338	            0.005674	           -0.657445	            0.002939	           -0.511919	           -0.025983
            1.254500	          -28.347745	         1078.486056	          -70.511204	           -0.149191	            0.006194	           -0.395006	           -0.028472	            1.083227	           -0.070821	           -6.067561	         1050.933344	           53.354474	           -0.184442	            0.005675	           -0.657616	            0.002207	           -0.382343	           -0.019411
            1.255000	          -28.349056	         1083.173811	          -70.674530	           -0.149228	            0.006194	           -0.394933	           -0.034364	            1.313013	           -0.085671	           -5.944771	         1055.904450	           53.794509	           -0.184473	            0.005675	           -0.657644	            0.001868	           -0.331804	           -0.016904
            1.255500	          -29.404077	         1089.121496	          -70.462982	           -0.149223	            0.006194	           -0.394946	           -0.023381	            0.866019	           -0.056029	           -4.979245	         1061.061842	           54.469481	           -0.184629	            0.005675	           -0.657969	            0.002084	           -0.444073	           -0.022796
            1.256000	          -29.907771	         1093.445416	          -69.892909	           -0.149348	            0.006194	           -0.394978	           -0.010612	            0.387987	           -0.024800	           -3.684728	         1065.854359	           54.486007	           -0.184638	            0.005675	           -0.657948	            0.002366	           -0.684436	           -0.034988
            1.256500	          -30.319229	         1097.227800	          -69.141958	           -0.149321	            0.006194	           -0.394994	           -0.006675	            0.241559	           -0.015222	           -2.950854	         1070.274845	           55.017667	           -0.184828	            0.005675	           -0.657989	            0.002235	           -0.810758	           -0.041677
            1.257000	          -30.596464	         1103.538784	          -69.526921	           -0.149487	            0.006193	           -0.394661	           -0.015033	            0.542198	           -0.034160	           -2.964503	         1074.139472	           55.735387	           -0.184841	            0.005674	           -0.657905	            0.002200	           -0.797044	           -0.041357
            1.257500	          -29.590608	         1106.426965	          -70.388323	           -0.149311	            0.006195	           -0.395141	           -0.028929	            1.081697	           -0.068815	           -3.123457	         1079.293475	           56.223125	           -0.184934	            0.005675	           -0.658170	            0.001938	           -0.669676	           -0.034885
            1.258000	          -29.365320	         1111.119287	          -71.606908	           -0.149380	            0.006193	           -0.394776	           -0.038099	            1.441586	           -0.092904	           -3.508869	         1082.238205	           56.280725	           -0.184949	            0.005674	           -0.657884	            0.001586	           -0.489163	           -0.025438
            1.258500	          -29.320497	         1115.446065	          -71.680175	           -0.149485	            0.006193	           -0.394826	           -0.037789	            1.437631	           -0.092384	           -3.804302	         1086.286064	           56.952293	           -0.184992	            0.005674	           -0.658021	            0.001274	           -0.363704	           -0.019068
            1.259000	          -29.276107	         1119.052641	          -71.985825	           -0.149343	            0.006194	           -0.394883	           -0.026344	            1.006989	           -0.064777	           -3.585174	         1090.521112	           57.342731	           -0.184928	            0.005675	           -0.658117	            0.001572	           -0.478189	           -0.025145
            1.259500	          -29.504064	         1123.375434	          -71.141306	           -0.149334	            0.006193	           -0.394839	           -0.015302	            0.582643	           -0.036898	           -2.846127	         1093.469401	           57.540637	           -0.184941	            0.005674	           -0.657972	            0.001886	           -0.724610	           -0.038131
            1.260000	          -30.099020	         1126.617410	          -70.483923	           -0.149508	            0.006193	           -0.394858	           -0.011415	            0.427263	           -0.026731	           -2.627082	         1097.705118	           57.743363	           -0.185100	            0.005674	           -0.658137	            0.002058	           -0.859755	           -0.045226
            1.260500	          -30.098815	         1129.860877	          -70.149014	           -0.149473	            0.006194	           -0.395021	           -0.023722	            0.890489	           -0.055287	           -2.875809	         1101.754318	           58.086414	           -0.185049	            0.005675	           -0.658271	            0.002385	           -0.913633	           -0.048168
